<svg xmlns="http://www.w3.org/2000/svg" preserveAspectRatio="xMidYMid" width="18" height="18" viewBox="0 0 18 18"><defs><style>.cls-2{fill:#fff}</style></defs><path d="M17.642 1.992L10.678 8.96l6.964 6.969a1.191 1.191 0 0 1-.841 2.031c-.317 0-.616-.124-.84-.349l-6.964-6.968-6.964 6.968c-.448.45-1.232.451-1.681 0a1.186 1.186 0 0 1 0-1.682L7.316 8.96.352 1.992a1.182 1.182 0 0 1-.348-.841c0-.319.124-.617.349-.842C.8-.139 1.584-.14 2.033.31l6.964 6.967L15.961.309a1.217 1.217 0 0 1 1.681 0c.225.225.348.523.348.842 0 .317-.123.617-.348.841z" id="path-1" class="cls-2" fill-rule="evenodd"/></svg>