<svg xmlns="http://www.w3.org/2000/svg" preserveAspectRatio="xMidYMid" width="34" height="50" viewBox="0 0 68 100"><defs><style>.cls-2{fill:#6975a6}</style></defs><path d="M34-.003C15.27-.003 0 15.106 0 33.64c0 5.257 2.155 11.29 5.076 17.872 2.922 6.583 6.688 13.574 10.507 20.094 7.644 13.035 15.348 23.946 15.348 23.946L34 99.991l3.069-4.439s7.704-10.911 15.348-23.946c3.819-6.52 7.585-13.511 10.507-20.094C65.845 44.93 68 38.897 68 33.64 68 15.106 52.73-.003 34-.003zm0 7.476c14.65 0 26.444 11.67 26.444 26.167 0 3.002-1.622 8.656-4.368 14.835-2.744 6.18-6.534 13.026-10.271 19.392C39.868 78.001 36.184 83.357 34 86.558c-2.184-3.201-5.868-8.557-11.805-18.691-3.737-6.366-7.527-13.212-10.271-19.392-2.746-6.179-4.368-11.833-4.368-14.835C7.556 19.143 19.35 7.473 34 7.473zm0 18.69c-4.174 0-7.555 3.347-7.555 7.477 0 4.13 3.381 7.476 7.555 7.476 4.174 0 7.555-3.346 7.555-7.476S38.174 26.163 34 26.163z" id="path-1" class="cls-2" fill-rule="evenodd"/></svg>